# xmcd CD database file
#
# Track frame offsets:
#	150
#	14220
#	28725
#	43760
#	57512
#	73428
#	83500
#	94997
#	108895
#	122072
#	133642
#	147650
#	162962
#	177447
#	188280
#	204030
#	220230
#	233058
#	246163
#	259431
#	265887
#	280765
#
# Disc length: 3918 seconds
#
# Revision: 3
# Processed by: cddbd v1.5.2PL0 Copyright (c) Steve Scherf et al.
# Submitted via: jetAudio 7
#
DISCID=4c0f4c16
DTITLE=Various Artist - Curriculum A 2008.10.05a
DYEAR=1900
DGENRE=Blues
TTITLE0=Banty Rooster
TTITLE1=Mississippi Bolweavil Blues
TTITLE2=Moon Goin' Down
TTITLE3=God Moves On The Water
TTITLE4=Shetland Pony Blues
TTITLE5=Country Farm Blues
TTITLE6=Crossroads Blues
TTITLE7=Terraplane Blues
TTITLE8=Come On In My Kitchen
TTITLE9=Walkin Blues
TTITLE10=I Be's Troubled
TTITLE11=Good Morning Little School Girl
TTITLE12=Some Day Baby
TTITLE13=When The Saints Go Marching In
TTITLE14=Hard Time Killing Floor Blues
TTITLE15=Sitting On Top Of The World
TTITLE16=Dallas
TTITLE17=Dark Was The Night
TTITLE18=Hey Hey Baby
TTITLE19=Big Bill Style
TTITLE20=Chicken Ala Blues
TTITLE21=Days Like These
EXTD=
EXTT0=
EXTT1=
EXTT2=
EXTT3=
EXTT4=
EXTT5=
EXTT6=
EXTT7=
EXTT8=
EXTT9=
EXTT10=
EXTT11=
EXTT12=
EXTT13=
EXTT14=
EXTT15=
EXTT16=
EXTT17=
EXTT18=
EXTT19=
EXTT20=
EXTT21=
PLAYORDER=
